Coordinates
version=1
nRows=16
nColumns=18
inDegrees=yes

Units are S.I. units (second, meters, Newtons, ...)
If the header above contains a line with 'inDegrees', this indicates whether rotational values are in degrees (yes) or radians (no).

endheader
time	ground_thorax_rot_x	ground_thorax_rot_y	ground_thorax_rot_z	ground_thorax_tx	ground_thorax_ty	ground_thorax_tz	clav_prot	clav_elev	scapula_abduction	scapula_elevation	scapula_upward_rot	scapula_winging	plane_elv	shoulder_elv	axial_rot	elbow_flexion	pro_sup
      0.00000000	      3.49789507	     -1.00751370	     -8.81739105	     -0.00430231	      0.00400318	     -0.00006722	    -23.35372234	     -5.28650164	    -16.11633872	     -3.60396462	      8.45474556	      6.87182755	    -28.49642846	     19.00587929	     50.26208277	      0.00000000	     34.32000000
      0.01000000	      3.50645431	     -1.03401782	     -8.83241425	     -0.00432473	      0.00398746	     -0.00003524	    -23.35119022	     -5.27734556	    -16.12244415	     -3.59229328	      8.43909090	      6.87261851	    -28.50576141	     19.01134932	     50.26413430	      0.00000000	     34.32000000
      0.02000000	      3.51039599	     -1.06575761	     -8.84584664	     -0.00434115	      0.00394985	     -0.00001220	    -23.35058194	     -5.26719828	    -16.12978533	     -3.58123576	      8.42792063	      6.87209206	    -28.51459713	     19.02498782	     50.26700733	      0.00000000	     34.32000000
      0.03000000	      3.53072069	     -1.10730795	     -8.85973226	     -0.00437513	      0.00391089	      0.00003258	    -23.34922775	     -5.26148070	    -16.14063159	     -3.57047943	      8.40569177	      6.87574101	    -28.52679960	     19.03562937	     50.26958932	      0.00000000	     34.32000000
      0.04000000	      3.55775315	     -1.15491541	     -8.87666654	     -0.00442473	      0.00387711	      0.00008320	    -23.34606727	     -5.25710523	    -16.15228760	     -3.55837955	      8.37538199	      6.88178490	    -28.54035054	     19.04698868	     50.27253529	      0.00000000	     34.32000000
      0.05000000	      3.58293205	     -1.20596214	     -8.89838232	     -0.00448436	      0.00384143	      0.00016118	    -23.33989694	     -5.25047214	    -16.16102728	     -3.54344986	      8.34186766	      6.88781955	    -28.55354562	     19.06721715	     50.27659055	      0.00000000	     34.32000000
      0.06000000	      3.60641768	     -1.25710097	     -8.92505824	     -0.00453802	      0.00379777	      0.00026227	    -23.32857301	     -5.24136445	    -16.16272643	     -3.52563409	      8.30604020	      6.89350711	    -28.56583485	     19.10077388	     50.28181669	      0.00000000	     34.32000000
      0.07000000	      3.46474557	     -1.79661078	     -8.72255562	     -0.00455725	      0.00395301	      0.00030349	    -22.70742681	     -5.34006983	    -15.32532599	     -3.42553455	      7.81434646	      7.02891994	    -28.42372777	     19.56668230	     50.41596713	      0.00000000	     34.32000000
      0.08000000	      3.48885539	     -1.81979439	     -8.76189152	     -0.00458502	      0.00390060	      0.00040005	    -22.69964256	     -5.33348830	    -15.32624016	     -3.41303115	      7.78991272	      7.03254723	    -28.43740426	     19.56614486	     50.41336153	      0.00000000	     34.32000000
      0.09000000	      3.52835398	     -1.81564016	     -8.80210446	     -0.00463576	      0.00381681	      0.00048413	    -22.67452739	     -5.34304471	    -15.28982116	     -3.41390023	      7.77211975	      7.03899334	    -28.44664480	     19.58322558	     50.41152924	      0.00000000	     34.32000000
      0.10000000	      3.38089956	     -2.43500211	     -8.85054565	     -0.00441468	      0.00383424	      0.00047433	    -22.03783789	     -5.61398946	    -14.18160435	     -3.55524392	      7.66202175	      7.12074361	    -28.67105106	     19.84782883	     50.12318395	      0.00000000	     34.32000000
      0.11000000	      3.39088845	     -2.41065691	     -8.82978692	     -0.00448302	      0.00376833	      0.00046200	    -22.03388903	     -5.63258128	    -14.16312345	     -3.57344547	      7.67595285	      7.12297718	    -28.65926305	     19.84991562	     50.12156808	      0.00000000	     34.32000000
      0.12000000	      3.40433498	     -2.38608067	     -8.80607466	     -0.00458301	      0.00371977	      0.00043307	    -22.02952874	     -5.66004557	    -14.13912286	     -3.60001746	      7.69512493	      7.12677877	    -28.64051400	     19.86345355	     50.12112731	      0.00000000	     34.32000000
      0.13000000	      3.48131974	     -2.42152538	     -8.85099388	     -0.00460158	      0.00379013	      0.00047164	    -21.97663022	     -5.80492197	    -14.01929513	     -3.70679115	      7.68457364	      7.17340530	    -28.52411782	     20.06454642	     50.09984180	      0.00000000	     34.32000000
      0.14000000	      3.38079088	     -2.81581758	     -8.93091855	     -0.00444479	      0.00367830	      0.00057445	    -21.53615061	     -6.08277152	    -13.42542310	     -3.77022328	      7.23545124	      7.34298850	    -27.41901823	     20.67526526	     47.28613906	      0.00000000	     34.32000000
      0.15000000	      3.51575379	     -2.75093253	     -8.93395973	     -0.00448618	      0.00364074	      0.00072316	    -21.51483135	     -6.17169754	    -13.36188602	     -3.84188755	      7.24796802	      7.36812813	    -27.33940342	     20.83147473	     47.30407356	      0.00000000	     34.32000000
